inDegrees=yes
name=ik_S55_A10_T03
DataType=double
version=3
OpenSimVersion=4.3-2021-08-27-4bc7ad9
endheader
time	pelvis_tilt	pelvis_list	pelvis_rotation	pelvis_tx	pelvis_ty	pelvis_tz	hip_flexion_r	hip_adduction_r	hip_rotation_r	knee_angle_r	knee_angle_r_beta	ankle_angle_r	subtalar_angle_r	mtp_angle_r	hip_flexion_l	hip_adduction_l	hip_rotation_l	knee_angle_l	knee_angle_l_beta	ankle_angle_l	subtalar_angle_l	mtp_angle_l	lumbar_extension	lumbar_bending	lumbar_rotation	arm_flex_r	arm_add_r	arm_rot_r	elbow_flex_r	pro_sup_r	wrist_flex_r	wrist_dev_r	arm_flex_l	arm_add_l	arm_rot_l	elbow_flex_l	pro_sup_l	wrist_flex_l	wrist_dev_l
0	0	0	0	0	0.9399999999999999	0	0	0	0	0	0	0	0	0	0	0	0	0	0	0	0	0	0	0	0	0	0	0	0	89.99999999963507	0	0	0	0	0	0	89.99999999869995	0	0
0.02	-1.050603578206412	-1.722724751238766	24.07109359109858	0	0.9399999999999999	0	2.057055504957708	-0.9613668973924193	-0.692077886675059	3.202596288142613	0.05589584984023763	0	0	0	2.057055504957708	-0.9613668973924193	-0.692077886675059	3.202596288142613	0.05589584984023763	0	0	0	-1.468250634371425	-0.01730275356245731	8.948504439243806	15.14367081736476	1.415192224519427	19.21319910649294	14.27887254295548	93.7590289625419	0	0	8.858961805873832	-1.686976451379303	10.38574102098533	21.25540529004564	94.89207715233006	0	0
0.04	-1.068177490614969	-1.719299133776867	24.14755726934021	0	0.9399999999999999	0	2.601969711745434	-1.191978328373086	-0.9001108588982354	3.502744395690996	0.06113442256058697	0	0	0	2.601969711745434	-1.191978328373086	-0.9001108588982354	3.502744395690996	0.06113442256058697	0	0	0	-1.480262949028842	-0.02668611719133795	8.872450174536603	15.18129467229562	1.450248357606839	19.32435124130834	14.21523858668199	93.68297013445019	0	0	8.924506809026683	-1.693929815408481	10.46445873549758	21.25747983392869	94.86406850536243	0	0
0.06	-1.066787463884629	-1.717515955153731	24.10419111366593	0	0.9399999999999999	0	2.607299836797909	-1.194682277559913	-0.9019123198736662	3.510576083020657	0.06127111129047627	0	0	0	2.607299836797909	-1.194682277559913	-0.9019123198736662	3.510576083020657	0.06127111129047627	0	0	0	-1.477761943870491	-0.02642642320623047	8.891205310420437	15.17427679562009	1.466695462752456	19.46929826611597	14.1588900945448	93.68607374333342	0	0	8.953535227997303	-1.680167915866664	10.62368060941993	21.23915825752901	94.8307013137717	0	0
0.08	-1.339177422166315	-1.451662548869062	26.95677260277915	0	0.9399999999999999	0	35.38336752975066	-15.76968113698937	-11.599508985213	47.78532315046567	0.8340112231050957	0	0	0	35.38336752975066	-15.76968113698937	-11.599508985213	47.78532315046567	0.8340112231050957	0	0	0	-1.352365888300687	-0.3192685350641697	6.002585782961993	15.21594498441005	1.500311991920683	19.54893541930969	14.05522972302934	93.60621816499651	0	0	8.958595319259556	-1.697404177904049	10.62149900680815	21.22434205385525	94.75870264833956	0	0
0.1	-1.336467506762499	-1.450695709029457	26.96536538087898	0	0.9399999999999999	0	35.39798846156394	-15.75014133033512	-11.59516097006456	47.79312327513717	0.8341473609626794	0	0	0	35.39798846156394	-15.75014133033512	-11.59516097006456	47.79312327513717	0.8341473609626794	0	0	0	-1.350447069160387	-0.3195039196226164	5.985327272850449	15.19674662843293	1.503419479709944	19.57917580434252	14.06882050668042	93.60787709600822	0	0	9.005666703078173	-1.7449785342249	10.58468937323201	21.25620545049589	94.76498562792629	0	0
0.12	-1.348342351303841	-1.461669654266021	26.90339488217012	0	0.9399999999999999	0	35.41175930804479	-15.73220661099547	-11.59112817243123	47.80052110944743	0.8342764775289104	0	0	0	35.41175930804479	-15.73220661099547	-11.59112817243123	47.80052110944743	0.8342764775289104	0	0	0	-1.366878242581913	-0.3237689722034723	5.959797764400129	15.25243550077911	1.546356289949258	19.67621700203897	14.07820092447982	93.60032552673326	0	0	9.058830392641822	-1.77687936321783	10.49366687562528	21.24850426000203	94.8774731294595	0	0
0.14	-1.341651636139656	-1.463976240725406	26.8911869796551	0	0.9399999999999999	0	35.43001543083307	-15.70897243990912	-11.585811263544	47.810326464677	0.834447613261994	0	0	0	35.43001543083307	-15.70897243990912	-11.585811263544	47.810326464677	0.834447613261994	0	0	0	-1.362629539822337	-0.3294566505796268	5.951408564920294	15.24235146636765	1.56668697555744	19.69213047287344	14.08650853290113	93.58244014012747	0	0	9.041999808139293	-1.767662700026895	10.53701900422361	21.27074726148833	94.85543589459016	0	0
